<?xml version="1.0" standalone="no"?>
<!DOCTYPE svg PUBLIC "-//W3C//DTD SVG 20010904//EN"
 "http://www.w3.org/TR/2001/REC-SVG-20010904/DTD/svg10.dtd">
<svg version="1.0" xmlns="http://www.w3.org/2000/svg"
 width="168.000000pt" height="229.000000pt" viewBox="0 0 168.000000 229.000000"
 preserveAspectRatio="xMidYMid meet">

<g transform="translate(0.000000,229.000000) scale(0.100000,-0.100000)"
fill="#000000" stroke="none">
<path d="M396 1927 c-16 -12 -16 -13 2 -13 10 0 19 6 19 13 0 7 -1 13 -2 13
-1 0 -9 -6 -19 -13z"/>
<path d="M322 1888 c-26 -16 -30 -23 -20 -30 9 -6 6 -7 -9 -3 -21 6 -33 -8
-15 -18 9 -6 78 29 75 37 -8 17 -1 27 13 22 8 -3 12 -2 9 4 -9 14 -16 13 -53
-12z m12 -13 c-4 -8 -11 -15 -16 -15 -6 0 -5 6 2 15 7 8 14 15 16 15 2 0 1 -7
-2 -15z"/>
<path d="M234 1834 c-14 -14 -34 -19 -73 -19 -63 0 -78 -8 -90 -53 -8 -27 -7
-34 10 -42 18 -10 19 -25 19 -351 0 -296 -2 -340 -15 -346 -19 -7 -45 -55 -45
-82 0 -66 59 -107 138 -96 49 6 52 5 203 -82 308 -178 369 -216 374 -233 14
-44 46 -70 84 -70 40 0 59 14 82 64 12 25 97 90 149 113 8 3 46 25 83 47 37
23 88 52 112 66 24 14 69 41 101 60 32 19 72 40 89 46 35 13 35 35 2 73 -12
13 -17 21 -11 18 7 -4 14 0 18 8 6 18 2 19 -26 4 -28 -15 -1190 -1 -1185 14 3
11 61 48 102 66 11 5 35 21 54 35 19 14 38 26 42 26 5 0 27 12 51 28 134 85
155 94 198 87 21 -4 41 -2 44 3 8 13 49 3 152 -36 45 -17 85 -28 88 -25 3 4 6
2 6 -4 0 -6 21 -18 48 -27 26 -10 85 -34 131 -54 46 -20 92 -35 102 -35 10 1
19 -1 19 -5 0 -4 29 -19 64 -32 36 -13 63 -27 60 -32 -7 -11 1 -10 31 4 14 6
25 15 25 20 0 4 8 8 18 8 28 0 33 10 17 40 -8 15 -11 30 -8 34 4 3 2 6 -4 6
-6 0 -14 -7 -17 -16 -3 -8 -2 -12 4 -9 19 12 10 -8 -15 -31 -14 -13 -25 -28
-25 -34 0 -5 -4 -10 -10 -10 -5 0 -10 8 -10 18 0 10 -3 13 -8 6 -4 -7 -15 -8
-27 -3 l-20 8 20 1 c21 1 -45 29 -77 32 -10 1 -18 5 -18 8 0 3 -15 11 -32 19
-18 7 -62 26 -98 41 -36 16 -103 43 -150 61 -47 17 -100 41 -118 51 -18 11
-39 17 -47 14 -8 -3 -15 -1 -15 4 0 5 -11 12 -24 16 -13 3 -35 18 -47 32 -13
15 -15 19 -4 10 18 -16 21 -16 64 15 25 18 54 36 64 40 9 3 17 11 17 17 0 6 5
8 12 4 7 -5 8 -3 3 6 -6 9 -4 12 6 8 20 -8 66 26 50 36 -14 9 -33 -2 -26 -15
4 -5 -3 -9 -14 -9 -12 0 -23 0 -26 0 -3 0 -31 -16 -62 -34 -75 -44 -98 -48
-97 -18 0 12 1 59 2 105 2 57 5 77 12 67 7 -11 10 -8 10 16 0 39 -29 70 -32
33 -8 -122 -29 -221 -53 -243 -12 -12 -25 -30 -29 -41 -6 -21 -86 -75 -191
-130 -69 -36 -109 -59 -181 -103 -28 -18 -54 -32 -58 -32 -13 0 -5 39 14 63
11 14 20 29 20 34 0 5 13 29 28 54 27 42 55 91 123 217 18 31 37 64 43 72 23
30 47 80 39 80 -4 0 0 5 10 11 9 5 17 17 17 24 0 8 4 15 9 15 7 0 14 13 25 50
1 3 5 12 11 20 5 8 10 24 11 37 2 20 1 21 -12 9 -8 -8 -11 -23 -8 -33 5 -15 4
-15 -5 -3 -5 8 -12 12 -14 10 -12 -15 -52 -86 -52 -93 0 -4 -5 -11 -11 -15 -5
-4 -16 -22 -23 -39 -8 -18 -17 -33 -22 -33 -5 0 -9 -4 -9 -10 0 -5 -14 -33
-31 -62 -41 -68 -76 -130 -109 -194 -37 -69 -109 -174 -120 -174 -6 0 -11 130
-12 319 -2 205 1 319 7 318 5 -1 18 16 29 38 19 39 45 67 76 85 11 7 12 12 4
20 -9 9 -16 8 -30 -6z m641 -474 c-27 -12 -43 -12 -25 0 8 5 22 9 30 9 10 0 8
-3 -5 -9z m345 -290 c8 -5 11 -10 5 -10 -5 0 -17 5 -25 10 -8 5 -10 10 -5 10
6 0 17 -5 25 -10z m272 -59 c-9 -2 -24 -8 -32 -14 -8 -6 -4 1 9 16 18 20 27
24 33 15 5 -8 1 -14 -10 -17z m-1296 -36 c22 -34 12 -69 -26 -85 -41 -17 -80
7 -80 50 0 59 74 84 106 35z m1238 -75 c1 -17 -4 -30 -11 -30 -23 0 -62 -23
-56 -33 4 -6 1 -7 -6 -2 -8 4 -25 -1 -42 -14 -15 -11 -35 -21 -42 -21 -8 0
-25 -8 -38 -17 -28 -21 -62 -41 -104 -61 -16 -9 -41 -23 -55 -32 -14 -10 -56
-34 -93 -54 -67 -37 -69 -37 -118 -25 -39 10 -54 10 -69 1 -23 -14 -52 -16
-66 -3 -5 5 -25 18 -44 29 -19 11 -91 52 -160 92 -69 40 -160 93 -203 118 -42
24 -77 47 -77 52 0 12 267 20 733 21 343 0 446 3 441 12 -4 7 -4 9 1 5 5 -5 9
-21 9 -38z"/>
<path d="M595 1779 c-4 -5 -4 -13 -1 -16 3 -4 6 0 6 8 0 11 2 11 10 -1 6 -9
10 -10 10 -3 0 17 -17 25 -25 12z"/>
<path d="M771 1624 c0 -11 3 -14 6 -6 3 7 2 16 -1 19 -3 4 -6 -2 -5 -13z"/>
<path d="M1404 1168 c-4 -7 -3 -8 4 -4 10 6 16 -4 14 -25 -1 -3 5 -6 13 -6 11
0 10 5 -2 24 -18 26 -19 27 -29 11z"/>
<path d="M1425 1109 c-3 -4 2 -6 10 -5 21 3 28 13 10 13 -9 0 -18 -4 -20 -8z"/>
<path d="M1533 1091 c0 -11 5 -18 9 -15 4 3 5 11 1 19 -7 21 -12 19 -10 -4z"/>
<path d="M1521 1057 c2 -1 12 -9 22 -16 15 -12 17 -12 11 3 -3 9 -13 16 -22
16 -8 0 -13 -1 -11 -3z"/>
<path d="M1555 1010 c-3 -6 1 -7 9 -4 18 7 21 14 7 14 -6 0 -13 -4 -16 -10z"/>
<path d="M1608 935 c-17 -22 -17 -24 0 -36 14 -11 15 -11 5 1 -10 11 -9 17 4
32 9 10 14 20 12 22 -2 2 -12 -6 -21 -19z"/>
<path d="M1577 886 c-3 -8 -14 -13 -24 -11 -10 1 -24 -3 -32 -9 -11 -8 -13 -8
-8 1 4 6 3 14 -2 17 -5 3 -12 -1 -15 -9 -7 -20 23 -33 34 -15 6 10 9 9 12 -1
4 -12 7 -12 21 0 10 7 17 10 17 5 0 -4 5 -3 12 4 9 9 9 15 1 23 -7 7 -12 6
-16 -5z"/>
</g>
</svg>
